#!OML:ASF E:/inclinewalkrobotboard/Project1/Captureday1/Session1/subject1.ASF
:FULLY-SPECIFIED
:DEGREES
76
root 0 0 0 42.90009833540084 -30.76231861875719 -4.440377436408788
lowerback -7.234408901131899 1.75482834062871 -12.293371452928051
upperback -14.530763929717075 1.7026591121709937 -3.985219031489359
thorax -12.3773316962234 1.7426657972509134 2.6415179976027643
lowerneck -13.07763586712834 7.412809892637854 5.839490360892897
upperneck 15.966835280322485 8.593158158558358 2.992655150423876
head 7.054545486680839 4.704294173824124 0.8458516160676444
rclavicle -5.366676468472588E-15 9.304091982566433E-15
rhumerus 173.6579016493304 -1.8740027901113905 -197.0166974672983
rradius 6.562701323569009
rwrist 111.86351952627516
rhand -15.002476989771349 5.870695985838713
rfingers 7.125019999999996
rthumb 11.138988307985263 -23.794296206352463
lclavicle -1.1136238119313708E-14 3.232081816485758E-15
lhumerus -0.6559813257526201 16.51454843937566 2.5841401036749048
lradius 18.324003626690505
lwrist -34.38807090861046
lhand -1.0736899238779745 36.12028831509177
lfingers 7.125020000000029
lthumb 24.564261682551447 64.40286162866296
rfemur 156.14118968390164 -162.4917440166205 -148.86999159684893
rtibia 34.02168249994301
rfoot 21.627343824702812 -58.29574700352873
rtoes 35.83089279809129
lfemur -65.26807946512666 7.625361969276873 -38.7504448083338
ltibia 57.26413738423413
lfoot -36.75632144504492 24.694830995204175
ltoes 8.903572504511942
77
root 0 0 0 43.42402511534462 -30.937354724203608 -5.007868673268167
lowerback -7.326286451710422 1.8224858513993145 -12.108234777096136
upperback -14.569097174003268 1.7847580631225095 -3.9064180871858842
thorax -12.36476309185504 1.7636671534441057 2.629474678084319
lowerneck -13.026187945881148 7.520120560017087 5.9175862644523995
upperneck 15.689553321918538 8.7384759665084 3.0277167516654675
head 6.9496715735389465 4.774666210810717 0.8489193862376639
rclavicle -4.73526688185677E-15 8.46198155593303E-15
rhumerus 173.80384674637085 -9.640821424626086 -188.89994921227853
rradius 5.957740390526951
rwrist 111.43165120898907
rhand -13.5474721415701 4.869267186162051
rfingers 7.125019999999997
rthumb 12.5465777081786 -24.721438298753235
lclavicle -1.0389429897916452E-14 2.4158092900428346E-15
lhumerus -0.850741757821746 16.904245969650184 2.939633493356034
lradius 18.13587083075976
lwrist -34.40118056834836
lhand -1.7795797920373115 35.94428944800998
lfingers 7.125020000000029
lthumb 23.890942536225378 64.33491431446082
rfemur 156.39319123889356 -162.4512872116278 -148.86067587639764
rtibia 34.12256276369538
rfoot 22.509485391765402 -58.056668579375724
rtoes 35.86653294229676
lfemur -63.37410598644157 6.453916133709724 -37.53367129051735
ltibia 55.27418772425119
lfoot -38.79385490568646 24.81466946475415
ltoes 10.458709238584829
78
root 0 0 0 43.973778786811955 -31.089270504551937 -5.576932507389716
lowerback -7.411757888815539 1.885068883856694 -11.932366579178096
upperback -14.615394700266044 1.858310830102727 -3.8207960635682467
thorax -12.362501207535828 1.7812708092861818 2.631541348460329
lowerneck -12.972974403064084 7.644594562004171 5.998649071687128
upperneck 15.391539825055215 8.910495963648204 3.068256190153026
head 6.838297824678475 4.856571398099707 0.8537755150601043
rclavicle -4.252627581337192E-15 7.6681233122258E-15
rhumerus 174.05776340058355 -16.646606255058003 -181.04714983704093
rradius 5.462104712812266
rwrist 111.39100936238034
rhand -12.25547402977353 3.9966193966530685
rfingers 7.1250199999999975
rthumb 13.796677751310186 -25.5347838118528
lclavicle -9.958626943298089E-15 1.7857890068085634E-15
lhumerus -0.7967221227424783 17.092282697462494 2.9377980064978786
lradius 18.04079191723822
lwrist -34.431167541086126
lhand -2.186006909867096 35.83947602394893
lfingers 7.125020000000029
lthumb 23.502866140570337 64.29134275834025
rfemur 156.66056467754578 -162.60955066376007 -148.95742636299366
rtibia 34.187349810728016
rfoot 22.910985940119367 -57.82625731714626
rtoes 35.847812822200886
lfemur -61.802624216561426 5.634801502844016 -36.67144854075749
ltibia 53.31458468109382
lfoot -40.41737107119893 25.055229993897708
ltoes 11.852998854937892
79
root 0 0 0 44.923444360654244 -31.254901901466056 -6.535752880395753
lowerback -7.52972069611736 1.9871855141460313 -11.656427235219592
upperback -14.700929400235854 1.977843801820414 -3.6766340294175115
thorax -12.37893382676911 1.810616435965223 2.646948585629342
lowerneck -12.895113182527453 7.86229996667589 6.127335614457207
upperneck 14.895926325861398 9.217350010194913 3.127322603539834
head 6.657688170795778 4.9999846548812155 0.8603137598310324
rclavicle -3.738298245288274E-15 6.410785100454975E-15
rhumerus 174.20123287906537 -25.303772455843276 -170.8054431713365
rradius 4.851154236023351
rwrist 111.48169642886603
rhand -10.621367417377783 2.866433491308224
rfingers 7.125019999999999
rthumb 15.378570231130292 -26.595067877350466
lclavicle -9.56339899080447E-15 6.730589905239045E-16
lhumerus -0.6698131434107282 17.31756967193204 2.8715845528260004
lradius 17.922801137736982
lwrist -34.50103625603522
lhand -2.638722941894832 35.71994701568025
lfingers 7.125020000000029
lthumb 23.07041945280869 64.24102101809572
rfemur 156.9720535417894 -162.8499297087708 -149.1182332104936
rtibia 34.295311110702116
rfoot 23.38699960528369 -57.60228344182366
rtoes 35.81606634883219
lfemur -59.524855333224146 4.572103379776399 -35.56506960920856
ltibia 50.20417677153829
lfoot -42.54815781009834 25.490960814194864
ltoes 13.853858932863258
80
root 0 0 0 46.79185833296519 -31.321993946339276 -8.365692849201343
lowerback -7.720544134319587 2.1849030674856067 -11.185973787943588
upperback -14.86986353045101 2.21133458723113 -3.4194149905958864
thorax -12.428535479027474 1.8708088468916249 2.6883866139360943
lowerneck -12.783702567689748 8.273135338285309 6.338558423824606
upperneck 14.003776466581002 9.804890951708552 3.217060539609704
head 6.341597759457251 5.271289185177816 0.8734715172770657
rclavicle -3.552480522306232E-15 4.753645425504006E-15
rhumerus 173.2368978299968 -33.17149115230908 -160.82824669002216
rradius 4.256717754853479
rwrist 111.2782435878138
rhand -8.961986607635826 1.6854740684968244
rfingers 7.125019999999998
rthumb 16.983809543546887 -27.69502210929605
lclavicle -9.315603076870054E-15 -9.273712143191743E-16
lhumerus -0.38920603269542653 17.512526156363165 2.628719413482827
lradius 17.821594927445897
lwrist -34.55732312275636
lhand -3.134349707333369 35.6062189883562
lfingers 7.1250200000000286
lthumb 22.596135537151365 64.19972728319054
rfemur 157.37357996784854 -163.1746924341381 -149.33987862579255
rtibia 34.48166509980006
rfoot 24.11079630675178 -57.3360465617467
rtoes 35.75938155093066
lfemur -55.76104557891201 2.9185960829371016 -33.93218685442212
ltibia 44.872668966440884
lfoot -45.71835924511406 26.200784966993865
ltoes 17.039527783710803
81
root 0 0 0 50.68281776083098 -30.904838328538794 -12.019380325110088
lowerback -8.013169691925702 2.592731986361769 -10.355858167265163
upperback -15.203837528618763 2.699571484921239 -2.96755895242836
thorax -12.554213871968233 1.998487097288498 2.761489137092959
lowerneck -12.65789514654583 9.04190217656091 6.670423110396613
upperneck 12.446535766830873 10.914369467291017 3.3148721953067293
head 5.808843687797891 5.779728796692983 0.8974307391526462
rclavicle -4.238027383034294E-15 2.511161402385218E-15
rhumerus 170.08599676896728 -38.093013008237804 -153.11933800516928
rradius 3.8698511625840304
rwrist 110.26746452779949
rhand -7.642044441977056 0.7697506617843501
rfingers 7.125019999999995
rthumb 18.258263675000112 -28.52150948433379
lclavicle -9.489043240967324E-15 -3.008202323480545E-15
lhumerus 0.06036999290424383 17.51908002765189 2.0777291503101196
lradius 17.812940178954946
lwrist -34.53432445932412
lhand -3.6173275653632313 35.544366828051395
lfingers 7.125020000000028
lthumb 22.13182156449661 64.19795173367051
rfemur 157.8775731798773 -163.57997555590762 -149.62759608042282
rtibia 34.811137321475144
rfoot 25.31603009343568 -57.04074085388446
rtoes 35.687974716604614
lfemur -50.95199010959874 0.9542723503917028 -31.720736789075982
ltibia 37.79940026670921
lfoot -49.831484068762194 27.08481718704829
ltoes 21.38713612145581
82
root 0 0 0 63.54079365721387 -28.493494664167038 -23.288999144240815
lowerback -8.493085146576199 3.8770387597431855 -7.925867567878525
upperback -16.200811955028055 4.261219576749032 -1.8719849573134177
thorax -13.052013171432952 2.378949117343482 2.6879159258616934
lowerneck -12.576372694476381 11.024956991486432 7.390252654023148
upperneck 8.927621090256435 13.76492095585175 3.2315511765312226
head 4.657859448414364 7.085036262176068 0.9302060233366802
rclavicle -6.356121840168718E-15 -2.5529021994063527E-15
rhumerus 159.23215986486397 -42.54161107550988 -140.82000598374898
rradius 3.6521240683565566
rwrist 105.67733808814414
rhand -5.8406917313916695 -0.30021618461271693
rfingers 7.1250199999999895
rthumb 19.990408355065306 -29.425542891944367
lclavicle -1.0378442415720548E-14 -6.703745773784277E-15
lhumerus 1.1961116615497094 16.970075294738457 0.60516251204443
lradius 17.959463382754368
lwrist -34.35918778029823
lhand -4.030333073469552 35.58435725022581
lfingers 7.125020000000027
lthumb 21.72870901687104 64.2620663680228
rfemur 158.8483598733232 -164.486086555479 -150.28898245874592
rtibia 35.625647347707556
rfoot 27.90153448935188 -56.618237363604536
rtoes 35.66620684985264
lfemur -47.788199751322836 0.6514757448753308 -28.241735187192663
ltibia 32.35966356710553
lfoot -54.28687074007794 27.56419686762552
ltoes 26.573033810807924
83
root 0 0 0 72.62755280014005 -27.4267540776248 -30.837151233761986
lowerback -8.820504144087561 4.75670512697819 -5.958681537468258
upperback -16.94396118722002 5.355154467373551 -1.2511832945667032
thorax -13.414080877145508 2.615868653870602 2.282106281915051
lowerneck -12.533631568783932 12.019895267635352 7.722774860736711
upperneck 7.320700521730426 15.16175905026975 3.0927839510201665
head 4.118718305110674 7.733962608832012 0.9497171838276671
rclavicle -7.462570397663564E-15 -7.294928106804854E-15
rhumerus 146.4069991266944 -45.56918098386835 -128.63591647662614
rradius 3.7918839181696704
rwrist 98.48915049415673
rhand -4.383193540628515 -1.0141082791263933
rfingers 7.125019999999989
rthumb 21.38464015620098 -29.988655782839807
lclavicle -1.0956703279206824E-14 -9.595789109890747E-15
lhumerus 2.872837841690492 16.200596999504995 -1.1702185362124666
lradius 18.222678682667862
lwrist -34.023625879215096
lhand -3.7659960185935795 35.78114954777774
lfingers 7.125020000000025
lthumb 21.972355958991336 64.37534562307964
rfemur 159.6768756799326 -165.0665216971576 -150.7214301539218
rtibia 36.08583340280169
rfoot 29.271967466215855 -55.98379863595959
rtoes 35.55000482608869
lfemur -47.44466130560357 2.1525447246116443 -25.045824849223735
ltibia 30.98100034027489
lfoot -56.310485340885805 27.135282367929136
ltoes 29.456175667498293
